<svg width="50" height="50" viewBox="0 0 50 50" fill="none" xmlns="http://www.w3.org/2000/svg">
<path fill-rule="evenodd" clip-rule="evenodd" d="M2.08333 5.91248C2.08333 4.89693 2.48676 3.92296 3.20487 3.20485C3.92298 2.48675 4.89694 2.08332 5.9125 2.08332H44.0833C44.5866 2.0825 45.0851 2.18095 45.5503 2.37304C46.0155 2.56513 46.4382 2.84709 46.7943 3.20277C47.1503 3.55845 47.4328 3.98087 47.6253 4.44584C47.8179 4.91081 47.9169 5.4092 47.9167 5.91248V44.0833C47.9172 44.5867 47.8185 45.0852 47.6262 45.5504C47.4339 46.0156 47.1517 46.4383 46.7959 46.7944C46.44 47.1504 46.0175 47.4328 45.5524 47.6254C45.0873 47.8179 44.5888 47.9169 44.0854 47.9166H5.9125C5.40947 47.9166 4.91137 47.8175 4.44666 47.625C3.98195 47.4324 3.55973 47.1502 3.20413 46.7944C2.84853 46.4386 2.56652 46.0162 2.37421 45.5514C2.1819 45.0866 2.08306 44.5884 2.08333 44.0854V5.91248ZM20.225 19.5583H26.4312V22.675C27.3271 20.8833 29.6187 19.2708 33.0625 19.2708C39.6646 19.2708 41.2292 22.8396 41.2292 29.3875V41.5166H34.5479V30.8792C34.5479 27.15 33.6521 25.0458 31.3771 25.0458C28.2208 25.0458 26.9083 27.3146 26.9083 30.8792V41.5166H20.225V19.5583ZM8.76667 41.2312H15.45V19.2708H8.76667V41.2291V41.2312ZM16.4062 12.1083C16.4188 12.6806 16.317 13.2495 16.1067 13.7819C15.8965 14.3142 15.582 14.7992 15.1817 15.2084C14.7815 15.6175 14.3035 15.9426 13.7759 16.1646C13.2484 16.3865 12.6817 16.5009 12.1094 16.5009C11.537 16.5009 10.9704 16.3865 10.4428 16.1646C9.91521 15.9426 9.43727 15.6175 9.03702 15.2084C8.63677 14.7992 8.32228 14.3142 8.112 13.7819C7.90172 13.2495 7.7999 12.6806 7.8125 12.1083C7.83723 10.9851 8.3008 9.91622 9.10393 9.13058C9.90705 8.34494 10.9859 7.90502 12.1094 7.90502C13.2329 7.90502 14.3117 8.34494 15.1148 9.13058C15.9179 9.91622 16.3815 10.9851 16.4062 12.1083Z" fill="white"/>
</svg>
