<svg width="20" height="20" viewBox="0 0 20 20" fill="none" xmlns="http://www.w3.org/2000/svg">
<path fill-rule="evenodd" clip-rule="evenodd" d="M9.99998 0.833334C4.93748 0.833334 0.833313 4.9375 0.833313 10C0.833313 15.0625 4.93748 19.1667 9.99998 19.1667C15.0625 19.1667 19.1666 15.0625 19.1666 10C19.1666 4.9375 15.0625 0.833334 9.99998 0.833334ZM10.8333 5.83333C10.8333 5.61232 10.7455 5.40036 10.5892 5.24408C10.433 5.0878 10.221 5 9.99998 5C9.77896 5 9.567 5.0878 9.41072 5.24408C9.25444 5.40036 9.16665 5.61232 9.16665 5.83333V10.8333C9.16665 11.0543 9.25444 11.2663 9.41072 11.4226C9.567 11.5789 9.77896 11.6667 9.99998 11.6667C10.221 11.6667 10.433 11.5789 10.5892 11.4226C10.7455 11.2663 10.8333 11.0543 10.8333 10.8333V5.83333ZM10.8333 13.75C10.8333 13.529 10.7455 13.317 10.5892 13.1607C10.433 13.0045 10.221 12.9167 9.99998 12.9167C9.77896 12.9167 9.567 13.0045 9.41072 13.1607C9.25444 13.317 9.16665 13.529 9.16665 13.75V14.1667C9.16665 14.3877 9.25444 14.5996 9.41072 14.7559C9.567 14.9122 9.77896 15 9.99998 15C10.221 15 10.433 14.9122 10.5892 14.7559C10.7455 14.5996 10.8333 14.3877 10.8333 14.1667V13.75Z" fill="#204051"/>
</svg>
