<svg width="50" height="50" viewBox="0 0 50 50" fill="none" xmlns="http://www.w3.org/2000/svg">
<path fill-rule="evenodd" clip-rule="evenodd" d="M15.5521 2.22084C17.9958 2.10834 18.775 2.08334 25 2.08334C31.225 2.08334 32.0042 2.11043 34.4458 2.22084C36.8875 2.33126 38.5542 2.72084 40.0125 3.28543C41.5396 3.86251 42.925 4.76459 44.0708 5.93126C45.2375 7.07501 46.1375 8.45834 46.7125 9.98751C47.2792 11.4458 47.6667 13.1125 47.7792 15.55C47.8917 17.9979 47.9167 18.7771 47.9167 25C47.9167 31.225 47.8896 32.0042 47.7792 34.4479C47.6687 36.8854 47.2792 38.5521 46.7125 40.0104C46.1375 41.5398 45.236 42.9254 44.0708 44.0708C42.925 45.2375 41.5396 46.1375 40.0125 46.7125C38.5542 47.2792 36.8875 47.6667 34.45 47.7792C32.0042 47.8917 31.225 47.9167 25 47.9167C18.775 47.9167 17.9958 47.8896 15.5521 47.7792C13.1146 47.6688 11.4479 47.2792 9.98958 46.7125C8.46025 46.1374 7.07462 45.236 5.92917 44.0708C4.76329 42.9264 3.86107 41.5414 3.28542 40.0125C2.72083 38.5542 2.33333 36.8875 2.22083 34.45C2.10833 32.0021 2.08333 31.2229 2.08333 25C2.08333 18.775 2.11042 17.9958 2.22083 15.5542C2.33125 13.1125 2.72083 11.4458 3.28542 9.98751C3.86192 8.45851 4.76483 7.07358 5.93125 5.92918C7.07508 4.76355 8.45932 3.86135 9.9875 3.28543C11.4458 2.72084 13.1125 2.33334 15.55 2.22084H15.5521ZM34.2604 6.34584C31.8437 6.23543 31.1187 6.21251 25 6.21251C18.8812 6.21251 18.1562 6.23543 15.7396 6.34584C13.5042 6.44793 12.2917 6.82084 11.4833 7.13543C10.4146 7.55209 9.65 8.04584 8.84792 8.84793C8.08759 9.58762 7.50246 10.4881 7.13542 11.4833C6.82083 12.2917 6.44792 13.5042 6.34583 15.7396C6.23542 18.1563 6.2125 18.8813 6.2125 25C6.2125 31.1188 6.23542 31.8438 6.34583 34.2604C6.44792 36.4958 6.82083 37.7083 7.13542 38.5167C7.50208 39.5104 8.0875 40.4125 8.84792 41.1521C9.5875 41.9125 10.4896 42.4979 11.4833 42.8646C12.2917 43.1792 13.5042 43.5521 15.7396 43.6542C18.1562 43.7646 18.8792 43.7875 25 43.7875C31.1208 43.7875 31.8437 43.7646 34.2604 43.6542C36.4958 43.5521 37.7083 43.1792 38.5167 42.8646C39.5854 42.4479 40.35 41.9542 41.1521 41.1521C41.9125 40.4125 42.4979 39.5104 42.8646 38.5167C43.1792 37.7083 43.5521 36.4958 43.6542 34.2604C43.7646 31.8438 43.7875 31.1188 43.7875 25C43.7875 18.8813 43.7646 18.1563 43.6542 15.7396C43.5521 13.5042 43.1792 12.2917 42.8646 11.4833C42.4479 10.4146 41.9542 9.65001 41.1521 8.84793C40.4123 8.08766 39.5119 7.50253 38.5167 7.13543C37.7083 6.82084 36.4958 6.44793 34.2604 6.34584ZM22.0729 32.0646C23.7076 32.7451 25.5279 32.8369 27.2228 32.3244C28.9177 31.8119 30.3821 30.7269 31.3659 29.2547C32.3496 27.7824 32.7918 26.0143 32.6168 24.2523C32.4417 22.4903 31.6604 20.8437 30.4062 19.5938C29.6067 18.7948 28.64 18.183 27.5757 17.8024C26.5114 17.4218 25.3759 17.282 24.251 17.393C23.1262 17.5039 22.0399 17.8629 21.0704 18.444C20.1009 19.0252 19.2724 19.8141 18.6444 20.7539C18.0164 21.6937 17.6046 22.761 17.4386 23.8791C17.2726 24.9972 17.3566 26.1381 17.6845 27.2198C18.0123 28.3016 18.576 29.2971 19.3348 30.1348C20.0937 30.9726 21.0288 31.6316 22.0729 32.0646ZM16.6708 16.6708C17.7646 15.577 19.0632 14.7094 20.4923 14.1174C21.9214 13.5255 23.4531 13.2208 25 13.2208C26.5469 13.2208 28.0786 13.5255 29.5077 14.1174C30.9368 14.7094 32.2354 15.577 33.3292 16.6708C34.423 17.7646 35.2906 19.0632 35.8826 20.4923C36.4745 21.9214 36.7792 23.4531 36.7792 25C36.7792 26.5469 36.4745 28.0786 35.8826 29.5077C35.2906 30.9368 34.423 32.2354 33.3292 33.3292C31.1201 35.5382 28.124 36.7792 25 36.7792C21.876 36.7792 18.8799 35.5382 16.6708 33.3292C14.4618 31.1201 13.2208 28.1241 13.2208 25C13.2208 21.876 14.4618 18.8799 16.6708 16.6708ZM39.3917 14.975C39.6627 14.7193 39.8797 14.4118 40.0298 14.0708C40.1799 13.7297 40.26 13.362 40.2654 12.9894C40.2709 12.6169 40.2015 12.247 40.0614 11.9017C39.9213 11.5564 39.7134 11.2427 39.4499 10.9793C39.1864 10.7158 38.8728 10.5078 38.5275 10.3678C38.1822 10.2277 37.8123 10.1583 37.4397 10.1637C37.0671 10.1692 36.6994 10.2493 36.3584 10.3994C36.0173 10.5495 35.7099 10.7665 35.4542 11.0375C34.9569 11.5647 34.6846 12.2648 34.6952 12.9894C34.7058 13.714 34.9983 14.406 35.5107 14.9184C36.0232 15.4309 36.7151 15.7234 37.4397 15.734C38.1643 15.7445 38.8645 15.4723 39.3917 14.975Z" fill="white"/>
</svg>
